<svg version="1.2" xmlns="http://www.w3.org/2000/svg" viewBox="0 0 29 29" width="29" height="29">
	<title>61d389529b75d31a1b6ffe02_6143d80884926776a4edc9aa_icon 1 1-svg</title>
	<style>
		.s0 { fill: none;stroke: #38e3ec;stroke-linecap: round;stroke-linejoin: round;stroke-width: 2 } 
	</style>
	<path id="Layer" class="s0" d="m23 6c2.3 2.2 3.6 5.3 3.6 8.5 0 3.2-1.3 6.3-3.6 8.5-2.2 2.3-5.3 3.6-8.5 3.6-3.2 0-6.3-1.3-8.5-3.6-2.3-2.2-3.6-5.3-3.6-8.5 0-3.2 1.3-6.3 3.6-8.5 2.2-2.3 5.3-3.6 8.5-3.6 3.2 0 6.3 1.3 8.5 3.6z"/>
	<path id="Layer" class="s0" d="m2.4 14.5h24.2"/>
	<path id="Layer" class="s0" d="m14.5 2.4c3 3.3 4.7 7.6 4.8 12.1-0.1 4.4-1.8 8.7-4.8 12-3-3.3-4.8-7.6-4.9-12 0.1-4.5 1.8-8.8 4.9-12.1z"/>
	<path id="Shape 1" class="s0" d="m37-4"/>
</svg>