<svg version="1.2" xmlns="http://www.w3.org/2000/svg" viewBox="0 0 153 28" width="153" height="28">
	<title>61d38cea4004261cc4852769_Group 1-svg</title>
	<style>
		.s0 { fill: #ffffff } 
	</style>
	<path id="ASTRAL" class="s0" d="m17.9 24.2l-6.3-15.5-4.5 11.2h4.8v4.3h-11.9l9.3-21.9h4.8l9.3 21.9zm16.3-1c-1.6-0.6-3.1-1.4-4.4-2.6l3-3.6q1.7 1.4 3.2 2.1 1.4 0.7 3.2 0.7c0.9 0 1.6-0.2 2.1-0.5q0.7-0.5 0.7-1.4v-0.1c0-0.3 0-0.6-0.1-0.8q-0.2-0.4-0.6-0.7-0.5-0.2-1.3-0.5c-0.5-0.2-1.2-0.4-2.1-0.7q-1.6-0.3-3-0.9c-0.9-0.3-1.7-0.7-2.3-1.2q-0.9-0.7-1.4-1.8c-0.4-0.7-0.5-1.6-0.5-2.6v-0.1c0-1 0.2-1.9 0.5-2.6q0.6-1.2 1.6-2.1c0.7-0.6 1.5-1 2.4-1.4q1.4-0.4 3.2-0.4 2.4 0 4.4 0.7c1.3 0.5 2.6 1.2 3.7 2.1l-2.6 3.7c-1.1-0.7-2.1-1.3-3-1.6q-1.3-0.6-2.6-0.6-1.2 0-1.8 0.5-0.7 0.5-0.7 1.3c0 0.4 0.1 0.7 0.2 0.9q0.2 0.4 0.7 0.7 0.4 0.2 1.3 0.5 0.9 0.3 2.3 0.6c1.1 0.3 2 0.7 2.9 1q1.3 0.6 2.2 1.3c0.6 0.6 1 1.1 1.3 1.8q0.5 1 0.5 2.4v0.1q0 1.6-0.6 2.8c-0.4 0.8-0.9 1.5-1.6 2.1q-1.1 0.9-2.6 1.3-1.5 0.5-3.3 0.5-2.5 0-4.9-0.9zm19.6-16.3v-4.6h18.5v4.6h-6.6v17.2h-5.3v-17.2zm40.7 17.2l-7.7-11.3h4.3q3.3 0 3.4-3 0-3-3.5-3h-4.5v17.3h-5.2v-21.8h10.1q4.3 0 6.6 2.3 1.8 1.9 1.8 4.9 0 5.3-4.6 6.8l5.3 7.8zm29.2 0.1l-6.3-15.5-4.5 11.2h4.7v4.3h-11.8l9.3-21.9h4.7l9.4 21.9zm13.2-0.1v-21.8h5.2v17.3h10.8v4.5z"/>
</svg>